{
    "streams": [
        {
            "index": 0,
            "codec_name": "hevc",
            "codec_long_name": "H.265 / HEVC (High Efficiency Video Coding)",
            "profile": "Main",
            "codec_type": "video",
            "codec_time_base": "1001/24000",
            "codec_tag_string": "[0][0][0][0]",
            "codec_tag": "0x0000",
            "width": 1920,
            "height": 1080,
            "coded_width": 1920,
            "coded_height": 1080,
            "closed_captions": 0,
            "has_b_frames": 2,
            "sample_aspect_ratio": "1:1",
            "display_aspect_ratio": "16:9",
            "pix_fmt": "yuv420p",
            "level": 120,
            "color_range": "tv",
            "color_space": "bt709",
            "color_transfer": "bt709",
            "color_primaries": "bt709",
            "refs": 1,
            "r_frame_rate": "24000/1001",
            "avg_frame_rate": "24000/1001",
            "time_base": "1/1000",
            "start_pts": 105,
            "start_time": "0:00:00.105000",
            "disposition": {
                "default": 1,
                "dub": 0,
                "original": 0,
                "comment": 0,
                "lyrics": 0,
                "karaoke": 0,
                "forced": 0,
                "hearing_impaired": 0,
                "visual_impaired": 0,
                "clean_effects": 0,
                "attached_pic": 0,
                "timed_thumbnails": 0
            },
            "tags": {
                "BPS": "900213",
                "DURATION": "00:44:56.485708333",
                "NUMBER_OF_FRAMES": "64651",
                "NUMBER_OF_BYTES": "303426574",
                "_STATISTICS_WRITING_APP": "mkvpropedit v56.1.0 ('My Friend') 64-bit",
                "_STATISTICS_WRITING_DATE_UTC": "2021-05-04 20:01:51",
                "_STATISTICS_TAGS": "BPS DURATION NUMBER_OF_FRAMES NUMBER_OF_BYTES"
            }
        },
        {
            "index": 1,
            "codec_name": "aac",
            "codec_long_name": "AAC (Advanced Audio Coding)",
            "profile": "HE-AAC",
            "codec_type": "audio",
            "codec_time_base": "1/48000",
            "codec_tag_string": "[0][0][0][0]",
            "codec_tag": "0x0000",
            "sample_fmt": "fltp",
            "sample_rate": "48000",
            "channels": 6,
            "channel_layout": "5.1",
            "bits_per_sample": 0,
            "r_frame_rate": "0/0",
            "avg_frame_rate": "0/0",
            "time_base": "1/1000",
            "start_pts": 0,
            "start_time": "0:00:00.000000",
            "disposition": {
                "default": 1,
                "dub": 0,
                "original": 0,
                "comment": 0,
                "lyrics": 0,
                "karaoke": 0,
                "forced": 0,
                "hearing_impaired": 0,
                "visual_impaired": 0,
                "clean_effects": 0,
                "attached_pic": 0,
                "timed_thumbnails": 0
            },
            "tags": {
                "title": "Surround",
                "LANGUAGE": "und",
                "BPS": "192003",
                "DURATION": "00:44:56.661000000",
                "NUMBER_OF_FRAMES": "63204",
                "NUMBER_OF_BYTES": "64720897",
                "_STATISTICS_WRITING_APP": "mkvpropedit v56.1.0 ('My Friend') 64-bit",
                "_STATISTICS_WRITING_DATE_UTC": "2021-05-04 20:01:51",
                "_STATISTICS_TAGS": "BPS DURATION NUMBER_OF_FRAMES NUMBER_OF_BYTES"
            }
        },
        {
            "index": 2,
            "codec_name": "ass",
            "codec_long_name": "ASS (Advanced SSA) subtitle",
            "codec_type": "subtitle",
            "codec_time_base": "0/1",
            "codec_tag_string": "[0][0][0][0]",
            "codec_tag": "0x0000",
            "r_frame_rate": "0/0",
            "avg_frame_rate": "0/0",
            "time_base": "1/1000",
            "start_pts": 0,
            "start_time": "0:00:00.000000",
            "duration_ts": 2696704,
            "duration": "0:44:56.704000",
            "disposition": {
                "default": 0,
                "dub": 0,
                "original": 0,
                "comment": 0,
                "lyrics": 0,
                "karaoke": 0,
                "forced": 0,
                "hearing_impaired": 0,
                "visual_impaired": 0,
                "clean_effects": 0,
                "attached_pic": 0,
                "timed_thumbnails": 0
            },
            "tags": {
                "LANGUAGE": "ara",
                "BPS": "52",
                "DURATION": "00:44:16.953000000",
                "NUMBER_OF_FRAMES": "633",
                "NUMBER_OF_BYTES": "17309",
                "_STATISTICS_WRITING_APP": "mkvpropedit v56.1.0 ('My Friend') 64-bit",
                "_STATISTICS_WRITING_DATE_UTC": "2021-05-04 20:01:51",
                "_STATISTICS_TAGS": "BPS DURATION NUMBER_OF_FRAMES NUMBER_OF_BYTES"
            }
        },
        {
            "index": 3,
            "codec_name": "ass",
            "codec_long_name": "ASS (Advanced SSA) subtitle",
            "codec_type": "subtitle",
            "codec_time_base": "0/1",
            "codec_tag_string": "[0][0][0][0]",
            "codec_tag": "0x0000",
            "r_frame_rate": "0/0",
            "avg_frame_rate": "0/0",
            "time_base": "1/1000",
            "start_pts": 0,
            "start_time": "0:00:00.000000",
            "duration_ts": 2696704,
            "duration": "0:44:56.704000",
            "disposition": {
                "default": 0,
                "dub": 0,
                "original": 0,
                "comment": 0,
                "lyrics": 0,
                "karaoke": 0,
                "forced": 0,
                "hearing_impaired": 0,
                "visual_impaired": 0,
                "clean_effects": 0,
                "attached_pic": 0,
                "timed_thumbnails": 0
            },
            "tags": {
                "LANGUAGE": "dan",
                "BPS": "67",
                "DURATION": "00:44:04.904000000",
                "NUMBER_OF_FRAMES": "375",
                "NUMBER_OF_BYTES": "22318",
                "_STATISTICS_WRITING_APP": "mkvpropedit v56.1.0 ('My Friend') 64-bit",
                "_STATISTICS_WRITING_DATE_UTC": "2021-05-04 20:01:51",
                "_STATISTICS_TAGS": "BPS DURATION NUMBER_OF_FRAMES NUMBER_OF_BYTES"
            }
        },
        {
            "index": 4,
            "codec_name": "ass",
            "codec_long_name": "ASS (Advanced SSA) subtitle",
            "codec_type": "subtitle",
            "codec_time_base": "0/1",
            "codec_tag_string": "[0][0][0][0]",
            "codec_tag": "0x0000",
            "r_frame_rate": "0/0",
            "avg_frame_rate": "0/0",
            "time_base": "1/1000",
            "start_pts": 0,
            "start_time": "0:00:00.000000",
            "duration_ts": 2696704,
            "duration": "0:44:56.704000",
            "disposition": {
                "default": 0,
                "dub": 0,
                "original": 0,
                "comment": 0,
                "lyrics": 0,
                "karaoke": 0,
                "forced": 0,
                "hearing_impaired": 0,
                "visual_impaired": 0,
                "clean_effects": 0,
                "attached_pic": 0,
                "timed_thumbnails": 0
            },
            "tags": {
                "LANGUAGE": "dut",
                "BPS": "68",
                "DURATION": "00:44:05.016000000",
                "NUMBER_OF_FRAMES": "357",
                "NUMBER_OF_BYTES": "22698",
                "_STATISTICS_WRITING_APP": "mkvpropedit v56.1.0 ('My Friend') 64-bit",
                "_STATISTICS_WRITING_DATE_UTC": "2021-05-04 20:01:51",
                "_STATISTICS_TAGS": "BPS DURATION NUMBER_OF_FRAMES NUMBER_OF_BYTES"
            }
        },
        {
            "index": 5,
            "codec_name": "ass",
            "codec_long_name": "ASS (Advanced SSA) subtitle",
            "codec_type": "subtitle",
            "codec_time_base": "0/1",
            "codec_tag_string": "[0][0][0][0]",
            "codec_tag": "0x0000",
            "r_frame_rate": "0/0",
            "avg_frame_rate": "0/0",
            "time_base": "1/1000",
            "start_pts": 0,
            "start_time": "0:00:00.000000",
            "duration_ts": 2696704,
            "duration": "0:44:56.704000",
            "disposition": {
                "default": 0,
                "dub": 0,
                "original": 0,
                "comment": 0,
                "lyrics": 0,
                "karaoke": 0,
                "forced": 0,
                "hearing_impaired": 0,
                "visual_impaired": 0,
                "clean_effects": 0,
                "attached_pic": 0,
                "timed_thumbnails": 0
            },
            "tags": {
                "LANGUAGE": "eng",
                "BPS": "86",
                "DURATION": "00:42:26.950000000",
                "NUMBER_OF_FRAMES": "538",
                "NUMBER_OF_BYTES": "27436",
                "_STATISTICS_WRITING_APP": "mkvpropedit v56.1.0 ('My Friend') 64-bit",
                "_STATISTICS_WRITING_DATE_UTC": "2021-05-04 20:01:51",
                "_STATISTICS_TAGS": "BPS DURATION NUMBER_OF_FRAMES NUMBER_OF_BYTES"
            }
        },
        {
            "index": 6,
            "codec_name": "ass",
            "codec_long_name": "ASS (Advanced SSA) subtitle",
            "codec_type": "subtitle",
            "codec_time_base": "0/1",
            "codec_tag_string": "[0][0][0][0]",
            "codec_tag": "0x0000",
            "r_frame_rate": "0/0",
            "avg_frame_rate": "0/0",
            "time_base": "1/1000",
            "start_pts": 0,
            "start_time": "0:00:00.000000",
            "duration_ts": 2696704,
            "duration": "0:44:56.704000",
            "disposition": {
                "default": 0,
                "dub": 0,
                "original": 0,
                "comment": 0,
                "lyrics": 0,
                "karaoke": 0,
                "forced": 0,
                "hearing_impaired": 0,
                "visual_impaired": 0,
                "clean_effects": 0,
                "attached_pic": 0,
                "timed_thumbnails": 0
            },
            "tags": {
                "LANGUAGE": "fre",
                "BPS": "110",
                "DURATION": "00:42:46.719000000",
                "NUMBER_OF_FRAMES": "614",
                "NUMBER_OF_BYTES": "35540",
                "_STATISTICS_WRITING_APP": "mkvpropedit v56.1.0 ('My Friend') 64-bit",
                "_STATISTICS_WRITING_DATE_UTC": "2021-05-04 20:01:51",
                "_STATISTICS_TAGS": "BPS DURATION NUMBER_OF_FRAMES NUMBER_OF_BYTES"
            }
        },
        {
            "index": 7,
            "codec_name": "ass",
            "codec_long_name": "ASS (Advanced SSA) subtitle",
            "codec_type": "subtitle",
            "codec_time_base": "0/1",
            "codec_tag_string": "[0][0][0][0]",
            "codec_tag": "0x0000",
            "r_frame_rate": "0/0",
            "avg_frame_rate": "0/0",
            "time_base": "1/1000",
            "start_pts": 0,
            "start_time": "0:00:00.000000",
            "duration_ts": 2696704,
            "duration": "0:44:56.704000",
            "disposition": {
                "default": 0,
                "dub": 0,
                "original": 0,
                "comment": 0,
                "lyrics": 0,
                "karaoke": 0,
                "forced": 0,
                "hearing_impaired": 0,
                "visual_impaired": 0,
                "clean_effects": 0,
                "attached_pic": 0,
                "timed_thumbnails": 0
            },
            "tags": {
                "LANGUAGE": "ger",
                "BPS": "106",
                "DURATION": "00:42:26.746000000",
                "NUMBER_OF_FRAMES": "618",
                "NUMBER_OF_BYTES": "33788",
                "_STATISTICS_WRITING_APP": "mkvpropedit v56.1.0 ('My Friend') 64-bit",
                "_STATISTICS_WRITING_DATE_UTC": "2021-05-04 20:01:51",
                "_STATISTICS_TAGS": "BPS DURATION NUMBER_OF_FRAMES NUMBER_OF_BYTES"
            }
        },
        {
            "index": 8,
            "codec_name": "ass",
            "codec_long_name": "ASS (Advanced SSA) subtitle",
            "codec_type": "subtitle",
            "codec_time_base": "0/1",
            "codec_tag_string": "[0][0][0][0]",
            "codec_tag": "0x0000",
            "r_frame_rate": "0/0",
            "avg_frame_rate": "0/0",
            "time_base": "1/1000",
            "start_pts": 0,
            "start_time": "0:00:00.000000",
            "duration_ts": 2696704,
            "duration": "0:44:56.704000",
            "disposition": {
                "default": 0,
                "dub": 0,
                "original": 0,
                "comment": 0,
                "lyrics": 0,
                "karaoke": 0,
                "forced": 0,
                "hearing_impaired": 0,
                "visual_impaired": 0,
                "clean_effects": 0,
                "attached_pic": 0,
                "timed_thumbnails": 0
            },
            "tags": {
                "LANGUAGE": "per",
                "BPS": "0",
                "DURATION": "00:00:00.000000000",
                "NUMBER_OF_FRAMES": "0",
                "NUMBER_OF_BYTES": "0",
                "_STATISTICS_WRITING_APP": "mkvpropedit v56.1.0 ('My Friend') 64-bit",
                "_STATISTICS_WRITING_DATE_UTC": "2021-05-04 20:01:51",
                "_STATISTICS_TAGS": "BPS DURATION NUMBER_OF_FRAMES NUMBER_OF_BYTES"
            }
        },
        {
            "index": 9,
            "codec_name": "ass",
            "codec_long_name": "ASS (Advanced SSA) subtitle",
            "codec_type": "subtitle",
            "codec_time_base": "0/1",
            "codec_tag_string": "[0][0][0][0]",
            "codec_tag": "0x0000",
            "r_frame_rate": "0/0",
            "avg_frame_rate": "0/0",
            "time_base": "1/1000",
            "start_pts": 0,
            "start_time": "0:00:00.000000",
            "duration_ts": 2696704,
            "duration": "0:44:56.704000",
            "disposition": {
                "default": 0,
                "dub": 0,
                "original": 0,
                "comment": 0,
                "lyrics": 0,
                "karaoke": 0,
                "forced": 0,
                "hearing_impaired": 0,
                "visual_impaired": 0,
                "clean_effects": 0,
                "attached_pic": 0,
                "timed_thumbnails": 0
            },
            "tags": {
                "LANGUAGE": "spa",
                "BPS": "103",
                "DURATION": "00:42:46.719000000",
                "NUMBER_OF_FRAMES": "614",
                "NUMBER_OF_BYTES": "33286",
                "_STATISTICS_WRITING_APP": "mkvpropedit v56.1.0 ('My Friend') 64-bit",
                "_STATISTICS_WRITING_DATE_UTC": "2021-05-04 20:01:51",
                "_STATISTICS_TAGS": "BPS DURATION NUMBER_OF_FRAMES NUMBER_OF_BYTES"
            }
        },
        {
            "index": 10,
            "codec_name": "ass",
            "codec_long_name": "ASS (Advanced SSA) subtitle",
            "codec_type": "subtitle",
            "codec_time_base": "0/1",
            "codec_tag_string": "[0][0][0][0]",
            "codec_tag": "0x0000",
            "r_frame_rate": "0/0",
            "avg_frame_rate": "0/0",
            "time_base": "1/1000",
            "start_pts": 0,
            "start_time": "0:00:00.000000",
            "duration_ts": 2696704,
            "duration": "0:44:56.704000",
            "disposition": {
                "default": 0,
                "dub": 0,
                "original": 0,
                "comment": 0,
                "lyrics": 0,
                "karaoke": 0,
                "forced": 0,
                "hearing_impaired": 0,
                "visual_impaired": 0,
                "clean_effects": 0,
                "attached_pic": 0,
                "timed_thumbnails": 0
            },
            "tags": {
                "LANGUAGE": "vie",
                "BPS": "0",
                "DURATION": "00:00:00.000000000",
                "NUMBER_OF_FRAMES": "0",
                "NUMBER_OF_BYTES": "0",
                "_STATISTICS_WRITING_APP": "mkvpropedit v56.1.0 ('My Friend') 64-bit",
                "_STATISTICS_WRITING_DATE_UTC": "2021-05-04 20:01:51",
                "_STATISTICS_TAGS": "BPS DURATION NUMBER_OF_FRAMES NUMBER_OF_BYTES"
            }
        }
    ],
    "format": {
        "filename": "Z:\\Videos\\Shows\\Heroes (2006)\\01x23 - How to Stop an Exploding Man.mkv",
        "nb_streams": 11,
        "nb_programs": 0,
        "format_name": "matroska,webm",
        "format_long_name": "Matroska / WebM",
        "start_time": "0:00:00.000000",
        "duration": "0:44:56.704000",
        "size": "369338385",
        "bit_rate": "1095673",
        "probe_score": 100,
        "tags": {
            "CREATION_TIME": "",
            "ENCODER": "Lavf55.12.0"
        }
    }
}